<?xml version="1.0" encoding="utf-8"?>
<!-- Generator: Adobe Illustrator 16.0.0, SVG Export Plug-In . SVG Version: 6.00 Build 0)  -->
<!DOCTYPE svg PUBLIC "-//W3C//DTD SVG 1.1//EN" "http://www.w3.org/Graphics/SVG/1.1/DTD/svg11.dtd">
<svg version="1.1" id="Layer_1" xmlns="http://www.w3.org/2000/svg" xmlns:xlink="http://www.w3.org/1999/xlink" x="0px" y="0px"
	 width="211px" height="149px" viewBox="0 0 211 149" enable-background="new 0 0 211 149" xml:space="preserve">
<title>logo.getfood_v03.white</title>
<desc>Created with Sketch.</desc>
<g id="Map-r4">
	<g id="Results" transform="translate(-80.000000, -61.000000)">
		<g id="header">
			<g id="logo.getfood_v03.white" transform="translate(80.000000, 60.000000)">
				<g id="logo" transform="translate(0.000000, 0.832000)">
					<path id="Fill-1" fill="#FF353C" d="M112.23,50.735h-4.735c-0.533-2.334-0.667-2.735-1.534-5.137
						c-3.802,4.336-6.87,5.804-12.139,5.804c-11.206,0-18.342-8.672-18.342-22.347c0-14.41,7.537-23.481,19.41-23.481
						c9.471,0,15.74,5.47,17.34,15.276l-9.872,1.334c-0.334-2.268-0.667-3.202-1.333-4.469c-1.268-2.335-3.602-3.67-6.336-3.67
						c-5.536,0-8.604,5.27-8.604,14.81c0,9.073,3.201,14.076,9.071,14.076c2.401,0,4.468-0.934,5.803-2.735
						c1.066-1.468,1.4-2.602,1.4-4.937h-8.404V26.92h18.274V50.735L112.23,50.735z"/>
					<path id="Fill-3" fill="#FF353C" d="M137.621,30.255c-0.4-4.736-2.002-6.738-5.536-6.738c-3.669,0-5.603,2.135-6.069,6.738
						H137.621z M126.016,35.926c-0.066,0.533-0.066,1.267-0.066,1.534c0,4.27,2.533,7.072,6.337,7.072c3.2,0,5.2-1.801,5.868-5.137
						l8.804,0.6c-1.133,3.469-2,5.003-3.801,6.937c-2.867,3.068-6.402,4.47-11.205,4.47c-9.737,0-16.207-6.738-16.207-16.811
						c0-10.273,6.47-17.411,15.873-17.411c5.469,0,10.405,2.668,12.873,6.938c1.934,3.269,2.601,6.004,2.668,11.808L126.016,35.926
						L126.016,35.926z"/>
					<path id="Fill-5" fill="#FF353C" d="M163.607,39.261c0,3.736,0.733,4.403,4.535,4.403c0.934,0,1.602,0,3.067-0.133v7.204
						c-4.269,0.667-4.603,0.734-6.203,0.734c-8.069,0-11.069-2.868-11.069-10.74V25.386h-5.203v-7.538h5.735l0.8-9.739l8.338-0.668
						v10.407h7.069v7.538h-7.069V39.261z"/>
					<polygon id="Fill-7" fill="#FF353C" points="90.087,64.851 90.087,74.857 106.563,74.857 106.563,83.195 90.087,83.195 
						90.087,100.54 79.282,100.54 79.282,56.045 110.896,56.045 110.896,64.851 					"/>
					<path id="Fill-9" fill="#FF353C" d="M121.893,83.262c0,8.205,1.601,11.607,5.535,11.607c3.801,0,5.535-3.201,5.535-10.473
						c0-8.006-1.533-11.074-5.469-11.074S121.893,76.258,121.893,83.262 M143.168,84.195c0,10.074-6.537,17.012-15.941,17.012
						c-4.935,0-8.537-1.602-11.471-5.004c-2.802-3.335-4.068-7.137-4.068-12.342c0-10.071,6.271-16.876,15.539-16.876
						C136.832,66.985,143.168,73.79,143.168,84.195"/>
					<path id="Fill-11" fill="#FF353C" d="M156.574,83.262c0,8.205,1.6,11.607,5.535,11.607c3.803,0,5.537-3.201,5.537-10.473
						c0-8.006-1.535-11.074-5.472-11.074C158.241,73.323,156.574,76.258,156.574,83.262 M177.85,84.195
						c0,10.074-6.535,17.012-15.938,17.012c-4.937,0-8.538-1.602-11.474-5.004c-2.801-3.335-4.067-7.137-4.067-12.342
						c0-10.071,6.271-16.876,15.541-16.876C171.514,66.985,177.85,73.79,177.85,84.195"/>
					<path id="Fill-13" fill="#FF353C" d="M201.027,81.461c0-5.137-1.668-7.738-4.803-7.738c-3.668,0-5.47,3.603-5.47,10.873
						c0,6.271,1.802,9.74,5.136,9.74c3.067,0,5.137-2.734,5.137-6.738V81.461z M210.432,100.539h-9.004v-5.137
						c-2.469,4.203-4.936,5.805-9.004,5.805c-7.338,0-11.738-6.271-11.738-16.744c0-11.14,4.4-17.478,12.271-17.478
						c3.734,0,5.736,1.067,8.07,4.136V56.045h9.404V100.539L210.432,100.539z"/>
					<path id="Fill-15" fill="#FF353C" d="M114.766,131.561c0,7.271-1.002,10.474-4.136,13.273
						c-3.135,2.803-7.536,4.137-13.473,4.137c-6.27,0-10.805-1.468-13.939-4.402c-2.802-2.803-3.935-6.471-3.935-13.008v-27.752
						h11.271v27.752c0,3.603,0.333,5.137,1.267,6.471c1.134,1.602,3.401,2.469,6.27,2.469c2.868,0,5.402-0.936,6.536-2.4
						c1-1.269,1.267-2.736,1.267-6.537v-27.752h8.87v27.75H114.766z"/>
					<path id="Fill-17" fill="#FF353C" d="M143.512,116.551c-1.602-4.002-3.535-5.271-7.738-5.271c-3.866,0-6.067,1.469-6.067,3.938
						c0,2.602,1.603,3.735,6.401,4.67c6.67,1.4,9.404,2.268,11.672,3.803c3.736,2.535,5.736,6.271,5.736,10.539
						c0,4.67-2.533,9.272-6.537,11.873c-2.867,1.869-7.068,2.869-11.737,2.869c-5.202,0-9.403-1.268-12.738-3.802
						c-2.801-2.201-4.067-4.202-5.336-8.539l9.604-2.201c1.268,4.271,4.068,6.204,9.002,6.204c4.403,0,7.14-1.801,7.14-4.67
						c0-2.669-1.802-3.87-7.738-5.07c-4.937-1-7.803-1.934-10.271-3.468c-3.469-2.069-5.403-5.737-5.403-10.141
						c0-4.136,1.535-7.604,4.536-10.273c3.001-2.668,6.67-3.868,11.671-3.868c4.803,0,8.672,1.135,11.673,3.401
						c2.334,1.735,3.535,3.47,4.936,7.071L143.512,116.551z"/>
					<path id="Fill-19" fill="#FF353C" d="M176.945,130.959l-4.734-15.607l-4.736,15.607H176.945z M193.286,148.305h-11.204
						l-2.734-9.14h-14.34l-2.803,9.14h-9.137l14.205-44.494h12.072L193.286,148.305z"/>
					<g id="Group-23">
						<g id="Clip-22">
						</g>
						<defs>
							<filter id="Adobe_OpacityMaskFilter" filterUnits="userSpaceOnUse" x="0" y="0.173" width="65.001" height="100.364">
								<feColorMatrix  type="matrix" values="1 0 0 0 0  0 1 0 0 0  0 0 1 0 0  0 0 0 1 0"/>
							</filter>
						</defs>
						<mask maskUnits="userSpaceOnUse" x="0" y="0.173" width="65.001" height="100.364" id="mask-2">
							<g filter="url(#Adobe_OpacityMaskFilter)">
								<polygon id="path-1" fill="#FFFFFF" points="0,0.173 64.999,0.173 64.999,100.537 0,100.537 								"/>
							</g>
						</mask>
						<path id="Fill-21" mask="url(#mask-2)" fill="#FF353C" d="M34.667,54.241c-13.765,1.364-25.238-10.112-23.875-23.88
							c1.009-10.188,9.248-18.428,19.433-19.437C43.99,9.562,55.463,21.037,54.1,34.804C53.092,44.992,44.852,53.232,34.667,54.241
							 M32.5,0.173C14.416,0.202-0.083,14.798,0,32.885c0.023,4.804,1.084,9.361,2.973,13.458c0.064,0.138,0.124,0.274,0.178,0.415
							c0.354,0.923,3.419,7.792,29.35,53.779C58.434,54.542,61.495,47.681,61.85,46.758c0.054-0.141,0.114-0.277,0.178-0.415
							c1.888-4.097,2.949-8.654,2.972-13.458C65.082,14.798,50.583,0.202,32.5,0.173"/>
					</g>
					<g id="Group-26" transform="translate(11.301370, 103.786207)">
						<g id="Clip-25">
						</g>
						<defs>
							<filter id="Adobe_OpacityMaskFilter_1_" filterUnits="userSpaceOnUse" x="0.672" y="0.97" width="39.49" height="44.243">
								<feColorMatrix  type="matrix" values="1 0 0 0 0  0 1 0 0 0  0 0 1 0 0  0 0 0 1 0"/>
							</filter>
						</defs>
						<mask maskUnits="userSpaceOnUse" x="0.672" y="0.97" width="39.49" height="44.243" id="mask-4">
							<g filter="url(#Adobe_OpacityMaskFilter_1_)">
								<polygon id="path-3" fill="#FFFFFF" points="0.673,0.97 40.163,0.97 40.163,45.214 0.673,45.214 								"/>
							</g>
						</mask>
						<path id="Fill-24" mask="url(#mask-4)" fill="#FF353C" d="M35.181,9.851c-1.913-1.326-4.216-1.996-6.525-2.164
							c-2.264-0.166-4.725,0.201-6.655,1.459c0.578-3.422,2.475-5.334,5.917-5.729V0.97c-4.892,0.625-7.708,3.506-8.362,8.363
							c-2.016-1.473-4.701-1.9-7.16-1.725c-2.352,0.17-4.699,0.842-6.648,2.168c-4.731,3.225-5.878,9.229-4.576,14.513
							c0.843,3.422,2.497,6.597,4.016,9.75c0.723,1.501,1.452,2.999,2.272,4.45c1.217,2.15,2.177,4.789,4.561,5.98
							c0.92,0.486,1.932,0.741,2.973,0.743c0.55,0.001,1.098-0.062,1.64-0.157c0.506-0.089,1.026-0.18,1.513-0.332
							c0.792-0.246,1.625-0.365,2.455-0.353v0.002c0.814-0.015,1.63,0.104,2.407,0.353c0.48,0.151,0.989,0.241,1.487,0.33
							c0.531,0.096,1.069,0.158,1.61,0.157c1.021-0.002,2.015-0.257,2.917-0.741c2.34-1.188,3.282-3.82,4.476-5.967
							c0.806-1.449,1.521-2.945,2.231-4.443c1.491-3.146,3.114-6.314,3.942-9.729C40.949,19.06,39.825,13.067,35.181,9.851"/>
					</g>
					<path id="Fill-27" fill="#FF353C" d="M29.99,110.949c0,0,0.55-3.104-1.042-5.242c-1.591-2.141-4.721-2.504-4.721-2.504
						s-0.55,3.104,1.042,5.242C26.861,110.585,29.99,110.949,29.99,110.949"/>
				</g>
			</g>
		</g>
	</g>
</g>
</svg>
