<?xml version="1.0" encoding="utf-8"?>
<!-- Generator: Adobe Illustrator 16.0.0, SVG Export Plug-In . SVG Version: 6.00 Build 0)  -->
<!DOCTYPE svg PUBLIC "-//W3C//DTD SVG 1.1//EN" "http://www.w3.org/Graphics/SVG/1.1/DTD/svg11.dtd">
<svg version="1.1" id="Layer_2" xmlns="http://www.w3.org/2000/svg" xmlns:xlink="http://www.w3.org/1999/xlink" x="0px" y="0px"
	 width="1688px" height="1192px" viewBox="0 0 211 149" enable-background="new 0 0 211 149" xml:space="preserve">
<g id="Group-23_1_">
	<g id="Clip-22_1_">
	</g>
	<defs>
		<filter id="Adobe_OpacityMaskFilter" filterUnits="userSpaceOnUse" x="0" y="0" width="65.001" height="100.364">
			<feColorMatrix  type="matrix" values="1 0 0 0 0  0 1 0 0 0  0 0 1 0 0  0 0 0 1 0"/>
		</filter>
	</defs>
	<mask maskUnits="userSpaceOnUse" x="0" y="0" width="65.001" height="100.364" id="mask-2_1_">
		<g filter="url(#Adobe_OpacityMaskFilter)">
			<polygon id="path-1_1_" fill="#FFFFFF" points="0,0 64.999,0 64.999,100.364 0,100.364 			"/>
		</g>
	</mask>
	<path id="Fill-21_1_" mask="url(#mask-2_1_)" fill="#FF353C" d="M34.667,54.068c-13.765,1.364-25.238-10.112-23.875-23.88
		C11.801,20,20.04,11.76,30.225,10.751C43.99,9.389,55.463,20.864,54.1,34.631C53.092,44.819,44.852,53.06,34.667,54.068 M32.5,0
		C14.416,0.029-0.083,14.625,0,32.712c0.023,4.804,1.084,9.361,2.973,13.458c0.064,0.138,0.124,0.274,0.178,0.415
		c0.354,0.923,3.419,7.792,29.35,53.779C58.434,54.369,61.495,47.508,61.85,46.585c0.054-0.141,0.114-0.277,0.178-0.415
		c1.888-4.097,2.949-8.654,2.972-13.458C65.082,14.625,50.583,0.029,32.5,0"/>
</g>
<g id="Group-26_1_" transform="translate(11.301370, 103.786207)">
	<g id="Clip-25_1_">
	</g>
	<defs>
		<filter id="Adobe_OpacityMaskFilter_1_" filterUnits="userSpaceOnUse" x="0.672" y="0.802" width="39.49" height="44.242">
			<feColorMatrix  type="matrix" values="1 0 0 0 0  0 1 0 0 0  0 0 1 0 0  0 0 0 1 0"/>
		</filter>
	</defs>
	<mask maskUnits="userSpaceOnUse" x="0.672" y="0.802" width="39.49" height="44.242" id="mask-4_1_">
		<g filter="url(#Adobe_OpacityMaskFilter_1_)">
			<polygon id="path-3_1_" fill="#FFFFFF" points="0.673,0.802 40.163,0.802 40.163,45.046 0.673,45.046 			"/>
		</g>
	</mask>
	<path id="Fill-24_1_" mask="url(#mask-4_1_)" fill="#FF353C" d="M35.181,9.683c-1.913-1.326-4.216-1.996-6.525-2.164
		c-2.264-0.166-4.725,0.201-6.655,1.459c0.578-3.422,2.475-5.334,5.917-5.729V0.802c-4.892,0.625-7.708,3.506-8.362,8.363
		c-2.016-1.473-4.701-1.9-7.16-1.725c-2.352,0.17-4.699,0.842-6.648,2.168c-4.731,3.225-5.878,9.229-4.576,14.513
		c0.843,3.422,2.497,6.597,4.016,9.75c0.723,1.501,1.452,2.999,2.272,4.45c1.217,2.15,2.177,4.789,4.561,5.979
		c0.92,0.486,1.932,0.741,2.973,0.743c0.55,0.001,1.098-0.063,1.64-0.156c0.506-0.09,1.026-0.181,1.513-0.332
		c0.792-0.246,1.625-0.365,2.455-0.354v0.002c0.814-0.016,1.63,0.104,2.407,0.354c0.48,0.15,0.989,0.24,1.487,0.33
		c0.531,0.096,1.069,0.157,1.61,0.156c1.021-0.002,2.015-0.257,2.917-0.74c2.34-1.188,3.282-3.82,4.476-5.968
		c0.806-1.448,1.521-2.944,2.231-4.442c1.491-3.146,3.114-6.314,3.942-9.729C40.949,18.892,39.825,12.899,35.181,9.683"/>
</g>
<path id="Fill-27_1_" fill="#FF353C" d="M29.99,110.781c0,0,0.55-3.104-1.042-5.242c-1.591-2.141-4.721-2.504-4.721-2.504
	s-0.55,3.104,1.042,5.242C26.861,110.417,29.99,110.781,29.99,110.781"/>
</svg>
